<?xml version="1.0" standalone="no"?><!DOCTYPE svg PUBLIC "-//W3C//DTD SVG 1.1//EN" "http://www.w3.org/Graphics/SVG/1.1/DTD/svg11.dtd"><svg t="1536128917966" class="icon" style="" viewBox="0 0 1024 1024" version="1.1" xmlns="http://www.w3.org/2000/svg" p-id="9645" xmlns:xlink="http://www.w3.org/1999/xlink" width="200" height="200"><defs><style type="text/css"></style></defs><path d="M1002.455807 365.393296l0 555.086646c0 55.393039-45.068558 100.461597-100.461597 100.461597L119.824244 1020.941539c-55.393039 0-100.461597-45.068558-100.461597-100.461597l0-555.086646c0-55.393039 45.068558-100.461597 100.461597-100.461597l208.920829 0L102.464996 42.419188c-9.744304-9.574447-9.877325-25.266839-0.2906-35.010119 9.574447-9.767839 25.230002-9.888581 35.010119-0.2906l262.178368 257.814254 232.994571 0L894.535822 7.118469c9.744304-9.599004 25.411115-9.478262 35.010119 0.2906 9.586725 9.744304 9.453704 25.435673-0.2906 35.010119l-226.2811 222.513534 199.019969 0C957.387249 264.931699 1002.455807 310.000257 1002.455807 365.393296zM681.363435 645.843641l-299.785467-173.080862 0 346.162748L681.363435 645.843641z" p-id="9646"></path></svg>